<svg width="18" height="18" viewBox="0 0 18 18" fill="none" xmlns="http://www.w3.org/2000/svg">
<path d="M9 1C4.64 1 1 4.64 1 9C1 13.36 4.64 17 9 17C13.36 17 17 13.36 17 9C17 4.64 13.36 1 9 1ZM8 15.32C7.13486 15.1789 6.30748 14.8632 5.56823 14.3922C4.82899 13.9211 4.19335 13.3046 3.7 12.58C3.2134 11.8516 2.88003 11.0318 2.72015 10.1706C2.56028 9.3093 2.57724 8.42451 2.77 7.57L7 11.68V12.48C7 13.36 7.12 13.8 8 13.8V15.32ZM13.72 13.32C13.52 12.66 12.72 12 12 12H11V10C11 9.56 10.44 9 10 9H6V7H7C7.44 7 8 6.44 8 6V5H10C10.88 5 11.4 4.28 11.4 3.4V3.07C12.3519 3.46159 13.1964 4.07532 13.8627 4.85992C14.529 5.64452 14.9978 6.57719 15.23 7.58C15.4546 8.58626 15.4347 9.63169 15.172 10.6287C14.9092 11.6256 14.4113 12.5451 13.72 13.31V13.32Z" fill="#525960"/>
</svg>
