<svg width="16" height="16" viewBox="0 0 16 16" fill="none" xmlns="http://www.w3.org/2000/svg">
<path d="M8 0C3.64 0 0 3.64 0 8C0 12.36 3.64 16 8 16C12.36 16 16 12.36 16 8C16 3.64 12.36 0 8 0ZM8.81 12.13C8.79 12.84 8.26 13.28 7.57 13.26C6.91 13.24 6.4 12.77 6.42 12.06C6.44 11.34 6.98 10.88 7.64 10.9C8.34 10.93 8.84 11.41 8.81 12.13ZM10.77 7C10.18 7.66 8.99 8.09 8.72 8.97C8.66641 9.2166 8.63627 9.46772 8.63 9.72C8.63 9.77 8.6 9.88 8.45 9.88H6.88C6.72 9.88 6.7 9.78 6.7 9.73C6.76 8.38 7.36 7.53 8.53 6.85C8.92 6.56 9.23 6.1 9.23 5.61C9.24 4.37 7.59 3.79 6.88 4.89C6.67 5.22 6.7 5.62 6.7 5.99H4.75C4.75 4.02 5.78 2.73 7.78 2.73C9.53 2.73 11.25 3.6 11.25 5.56C11.25 6.13 11.05 6.61 10.77 7Z" fill="#525960"/>
</svg>
