<svg width="150" height="30" viewBox="0 0 150 30" fill="none" xmlns="http://www.w3.org/2000/svg">
<path d="M23 26.8V18.8H26V29.8H2V18.8H5V26.8H23Z" fill="#BCBBBB"/>
<path d="M7.4 18.9L21 20.9L21.1 18.5L8 15.8L7.5 18.8L7.4 18.9ZM9.2 12.1L21.2 17.7L22.3 15.3L10.3 9.69998L9.2 12.1ZM12.6 6.19998L22.8 14.7L24.5 12.7L14.3 4.19998L12.6 6.19998ZM19.1 0L17 1.59998L24.9 12.2L27 10.6L19.1 0ZM7 24.8H21V21.8H7V24.8Z" fill="#601BB3" fill-opacity="0.9"/>
<path d="M36.0002 18.7001L34.3002 18.5001C33.0002 18.5001 32.5002 17.9001 32.5002 17.0001C32.5002 16.0001 33.2002 15.2001 34.8002 15.2001C35.8002 15.2001 36.8002 15.5001 37.4002 16.0001L38.4002 15.0001C37.4002 14.3001 36.2002 14.0001 34.8002 14.0001C32.6002 14.0001 31.0002 15.1001 31.0002 17.0001C31.0002 18.7001 32.0002 19.6001 34.0002 19.8001L35.8002 19.9001C37.0002 20.0001 37.5002 20.5001 37.5002 21.5001C37.5002 22.7001 36.5002 23.3001 34.9002 23.3001C33.6002 23.3001 32.5002 23.0001 31.7002 22.2001L30.7002 23.2001C31.9002 24.2001 33.2002 24.5001 34.9002 24.5001C37.4002 24.5001 39.1002 23.4001 39.1002 21.5001C38.9002 19.5001 37.6002 18.9001 35.9002 18.7001H36.0002ZM48.7002 14.1001C47.0002 14.1001 46.0002 14.4001 45.1002 15.5001L46.1002 16.5001C46.7002 15.6001 47.3002 15.3001 48.7002 15.3001C50.5002 15.3001 51.3002 16.1001 51.3002 17.5001V18.5001H48.2002C45.9002 18.5001 44.6002 19.7001 44.6002 21.5001C44.6002 22.2001 44.9002 23.0001 45.4002 23.5001C46.1002 24.3001 46.8002 24.5001 48.3002 24.5001C48.842 24.5461 49.3874 24.4811 49.9032 24.3091C50.419 24.1372 50.8944 23.8619 51.3002 23.5001V24.5001H52.8002V17.5001C52.7002 15.2001 51.4002 14.1001 48.7002 14.1001ZM51.3002 20.8001C51.3002 21.7001 51.1002 22.2001 50.8002 22.5001C50.1002 23.1001 49.3002 23.2001 48.5002 23.2001C46.8002 23.2001 46.2002 22.6001 46.2002 21.5001C46.2002 20.3001 46.9002 19.7001 48.5002 19.7001H51.4002L51.3002 20.8001ZM58.5002 15.4001C59.5002 15.4001 60.1002 15.7001 60.9002 16.6001L61.9002 15.6001C60.8002 14.5001 59.9002 14.1001 58.5002 14.1001C55.9002 14.1001 53.9002 15.8001 53.9002 19.4001C53.9002 22.8001 55.9002 24.6001 58.5002 24.6001C59.9002 24.6001 60.8002 24.3001 61.8002 23.1001L60.8002 22.1001C60.0002 23.1001 59.4002 23.3001 58.5002 23.3001C58.0428 23.3119 57.5887 23.219 57.1727 23.0283C56.7567 22.8377 56.3898 22.5544 56.1002 22.2001C55.6002 21.5001 55.4002 20.7001 55.4002 19.4001C55.4002 18.1001 55.6002 17.3001 56.1002 16.6001C56.7002 15.8001 57.6002 15.4001 58.5002 15.4001ZM71.4002 14.2001H69.6002L65.0002 18.7001V9.6001H63.4002V24.4001H65.0002V20.6001L66.8002 18.8001L70.3002 24.4001H72.0002L67.8002 17.7001L71.3002 14.2001H71.4002ZM78.4002 13.9001C76.9002 13.9001 75.8002 14.5001 75.1002 15.2001C74.1002 16.2001 73.9002 17.5001 73.9002 19.4001C73.9002 21.3001 74.2002 22.5001 75.1002 23.4001C75.8002 24.2001 76.9002 24.8001 78.4002 24.8001C79.9002 24.8001 81.1002 24.3001 81.7002 23.5001C82.7002 22.5001 82.9002 21.3001 82.9002 19.4001C82.9002 17.4001 82.6002 16.2001 81.7002 15.2001C81.1002 14.5001 80.0002 13.9001 78.4002 13.9001ZM79.7002 21.9001C79.4002 22.2001 79.0002 22.3001 78.4002 22.3001C77.8002 22.3001 77.4002 22.2001 77.2002 21.9001C76.6002 21.3001 76.6002 20.3001 76.6002 19.3001C76.6002 18.1001 76.6002 17.3001 77.2002 16.7001C77.4002 16.4001 77.8002 16.2001 78.4002 16.2001C79.0002 16.2001 79.4002 16.4001 79.7002 16.7001C80.2002 17.3001 80.2002 18.1001 80.2002 19.3001C80.3002 20.4001 80.2002 21.3001 79.7002 21.9001ZM90.0002 14.0001L87.9002 20.6001L85.7002 14.0001H82.9002L86.9002 24.6001H88.9002L92.9002 14.0001H90.0002ZM97.3002 13.9001C94.5002 13.9001 92.7002 15.9001 92.7002 19.4001C92.7002 23.7001 95.1002 24.8001 97.6002 24.8001C99.6002 24.8001 100.6 24.3001 101.6 23.2001L100 21.8001C99.7008 22.1361 99.3296 22.4005 98.9142 22.5736C98.4987 22.7467 98.0496 22.8241 97.6002 22.8001C96.1002 22.8001 95.3002 21.8001 95.3002 20.3001H101.9V19.2001C101.9 16.2001 100.3 14.0001 97.3002 14.0001V13.9001ZM95.3002 18.3001C95.3002 17.8001 95.3002 17.5001 95.6002 17.2001C95.9002 16.5001 96.4002 16.0001 97.4002 16.0001C97.7837 16.0065 98.1573 16.123 98.4764 16.3358C98.7956 16.5485 99.0468 16.8486 99.2002 17.2001C99.4002 17.5001 99.4002 17.8001 99.5002 18.3001H95.3002ZM105.8 15.1001V14.0001H103.3V24.6001H105.9V18.2001C105.9 16.9001 106.8 16.3001 107.7 16.3001C108.3 16.3001 108.7 16.5001 109.1 17.0001L111.1 15.0001C110.3 14.2001 109.7 14.0001 108.6 14.0001C107.4 13.9001 106.4 14.4001 105.8 15.0001V15.1001ZM111.2 12.8001V24.6001H113.9V16.2001H115.9V14.2001H113.9V13.0001C113.9 12.5001 114.2 12.0001 114.9 12.0001H115.9V9.90012H114.4C112.2 9.90012 111.2 11.4001 111.2 12.9001V12.8001ZM127.4 13.9001C125.9 13.9001 124.8 14.5001 124.2 15.2001C123.2 16.2001 122.9 17.5001 122.9 19.4001C122.9 21.3001 123.2 22.5001 124.2 23.4001C124.8 24.2001 125.9 24.8001 127.4 24.8001C129 24.8001 130.1 24.3001 130.7 23.5001C131.7 22.5001 131.9 21.3001 131.9 19.4001C131.9 17.4001 131.6 16.2001 130.7 15.2001C130.1 14.5001 129 13.9001 127.4 13.9001ZM128.7 21.9001C128.4 22.2001 128 22.3001 127.4 22.3001C126.8 22.3001 126.4 22.2001 126.2 21.9001C125.6 21.3001 125.6 20.3001 125.6 19.3001C125.6 18.1001 125.7 17.3001 126.2 16.7001C126.5 16.4001 126.8 16.2001 127.4 16.2001C128 16.2001 128.4 16.4001 128.7 16.7001C129.2 17.3001 129.2 18.1001 129.2 19.3001C129.2 20.4001 129.2 21.3001 128.7 21.9001ZM144.5 14.0001L142.8 20.6001L140.6 14.0001H138.6L136.4 20.6001L134.7 14.0001H132L135.3 24.6001H137.5L139.7 17.9001L141.9 24.6001H144.1L147.4 14.0001H144.6H144.5ZM119.9 21.4001V9.80011H117.2V21.6001C117.2 23.1001 118.2 24.6001 120.3 24.6001H121.9V22.4001H120.9C120.2 22.4001 119.9 22.1001 119.9 21.4001ZM43.0002 15.8001L44.4002 14.5001H41.4002V11.1001H40.0002V21.8001C40.0002 23.3001 40.9002 24.5001 42.6002 24.5001H43.6002V23.3001H42.9002C41.9002 23.3001 41.5002 22.7001 41.5002 21.8001V15.8001H43.0002Z" fill="#222426"/>
</svg>
