<svg width="20" height="16" viewBox="0 0 20 16" fill="none" xmlns="http://www.w3.org/2000/svg">
<path d="M4.63 0.000280133H15.19C15.6148 -0.00999801 16.0319 0.115319 16.3807 0.358057C16.7296 0.600796 16.992 0.948336 17.13 1.35028L20 9.79028V14.0003C20 14.5307 19.7893 15.0394 19.4142 15.4145C19.0391 15.7896 18.5304 16.0003 18 16.0003H2C1.46957 16.0003 0.960859 15.7896 0.585786 15.4145C0.210714 15.0394 0 14.5307 0 14.0003V9.79028L2.78 1.35028C3.03 0.55028 3.78 -0.00971987 4.63 0.000280133ZM12.91 12.0003L14.91 10.0003H17.86L15.42 2.68028C15.3529 2.48166 15.2251 2.30915 15.0546 2.18712C14.8842 2.0651 14.6796 1.99974 14.47 2.00028H5.35C5.14036 1.99974 4.93584 2.0651 4.76537 2.18712C4.5949 2.30915 4.46709 2.48166 4.4 2.68028L1.96 10.0003H4.91L6.91 12.0003H12.91Z" fill="#525960"/>
</svg>
