<svg width="19" height="18" viewBox="0 0 19 18" fill="none" xmlns="http://www.w3.org/2000/svg">
<path d="M18.272 16.5L13.1316 11.32H12.7816C13.8821 9.91637 14.4053 8.14564 14.2443 6.36937C14.0833 4.5931 13.2503 2.94526 11.9154 1.76233C10.5805 0.579391 8.84442 -0.0494129 7.06156 0.00430829C5.27871 0.0580294 3.5836 0.790224 2.32236 2.05138C1.06112 3.31255 0.328877 5.00755 0.275152 6.79029C0.221427 8.57303 0.850271 10.309 2.03328 11.6439C3.21629 12.9787 4.86423 13.8116 6.64062 13.9726C8.417 14.1335 10.1878 13.6104 11.5915 12.51V12.86L16.7719 18L18.272 16.5ZM12.2716 6.99999C12.2716 8.32607 11.7448 9.59784 10.807 10.5355C9.86929 11.4732 8.59744 12 7.27127 12C5.94511 12 4.67326 11.4732 3.73552 10.5355C2.79778 9.59784 2.27096 8.32607 2.27096 6.99999C2.27096 5.67391 2.79778 4.40214 3.73552 3.46445C4.67326 2.52677 5.94511 1.99999 7.27127 1.99999C8.59744 1.99999 9.86929 2.52677 10.807 3.46445C11.7448 4.40214 12.2716 5.67391 12.2716 6.99999Z" fill="#525960"/>
</svg>
