<svg xmlns="http://www.w3.org/2000/svg" width="31.4" height="37" viewBox="0 0 31.4 37" fill="none" class="flex-grow-0 flex-shrink-0 w-8 h-[37px] relative" preserveAspectRatio="none"><g clip-path="url(#clip0_34_272)"><path d="M26.225 33V24H30.225V37H0.224976V24H4.22498V33H26.225Z" fill="#BCBBBB"/><path d="M21.725 0L19.025 2L28.925 15.3L31.625 13.3L21.725 0ZM26.225 18.4L13.525 7.8L15.625 5.3L28.325 15.9L26.225 18.4ZM9.32498 15.2L24.325 22.2L25.725 19.2L10.725 12.2L9.32498 15.2ZM23.325 25.99L24.005 23.04L7.90498 19.69L7.22498 23L23.325 25.99ZM23.225 30H7.22498V27H23.225V30Z" fill="#601BB3"/></g><defs><clippath id="clip0_34_272"><rect width="32" height="37" fill="white" transform="translate(0.224976)"/></clippath></defs></svg>